<?xml version="1.0" encoding="UTF-8" standalone="no"?>
<!DOCTYPE svg PUBLIC "-//W3C//DTD SVG 1.1//EN" "http://www.w3.org/Graphics/SVG/1.1/DTD/svg11.dtd">
<svg xmlns="http://www.w3.org/2000/svg" version="1.1" viewBox="0.00 0.00 261.00 197.00">
<path fill="#069bcc" d="
  M 0.00 5.19
  L 0.00 3.19
  Q 0.97 0.55 3.61 0.43
  Q 4.13 0.41 4.54 0.73
  C 10.62 5.42 2.21 10.93 0.00 5.19
  Z"
/>
<circle fill="#069bcc" cx="31.40" cy="4.11" r="3.49"/>
<circle fill="#069bcc" cx="59.52" cy="4.11" r="3.49"/>
<circle fill="#069bcc" cx="87.67" cy="4.10" r="3.50"/>
<circle fill="#069bcc" cx="115.78" cy="4.12" r="3.50"/>
<circle fill="#069bcc" cx="145.05" cy="4.11" r="3.49"/>
<circle fill="#069bcc" cx="173.14" cy="4.11" r="3.51"/>
<circle fill="#069bcc" cx="201.24" cy="4.10" r="3.50"/>
<circle fill="#069bcc" cx="229.40" cy="4.10" r="3.49"/>
<path fill="#069bcc" d="
  M 261.00 3.81
  L 261.00 4.81
  C 259.60 9.53 253.22 7.74 254.18 3.48
  Q 254.80 0.77 257.80 0.42
  Q 258.31 0.36 258.71 0.66
  Q 260.41 1.89 261.00 3.81
  Z"
/>
<path fill="#069bcc" d="
  M 0.00 36.69
  L 0.00 34.69
  C 2.08 29.05 9.38 34.25 5.90 37.76
  C 3.74 39.95 1.23 39.43 0.00 36.69
  Z"
/>
<circle fill="#069bcc" cx="31.41" cy="35.64" r="3.44"/>
<circle fill="#069bcc" cx="59.52" cy="35.62" r="3.44"/>
<circle fill="#069bcc" cx="87.66" cy="35.63" r="3.46"/>
<circle fill="#069bcc" cx="115.77" cy="35.64" r="3.44"/>
<circle fill="#069bcc" cx="145.03" cy="35.65" r="3.46"/>
<circle fill="#069bcc" cx="173.16" cy="35.64" r="3.45"/>
<circle fill="#069bcc" cx="201.25" cy="35.64" r="3.44"/>
<circle fill="#069bcc" cx="229.39" cy="35.64" r="3.44"/>
<path fill="#069bcc" d="
  M 261.00 35.06
  L 261.00 36.31
  C 258.76 42.40 251.54 37.23 254.78 33.51
  C 256.86 31.13 260.00 32.00 261.00 35.06
  Z"
/>
<path fill="#069bcc" d="
  M 0.00 67.94
  L 0.00 65.94
  C 2.87 60.28 9.55 66.07 5.57 69.69
  C 3.66 71.42 0.79 70.46 0.00 67.94
  Z"
/>
<circle fill="#069bcc" cx="31.35" cy="67.06" r="3.45"/>
<circle fill="#069bcc" cx="59.53" cy="67.06" r="3.46"/>
<circle fill="#069bcc" cx="87.67" cy="67.06" r="3.45"/>
<circle fill="#069bcc" cx="115.75" cy="67.07" r="3.47"/>
<circle fill="#069bcc" cx="145.03" cy="67.06" r="3.49"/>
<circle fill="#069bcc" cx="173.12" cy="67.07" r="3.47"/>
<circle fill="#069bcc" cx="201.27" cy="67.06" r="3.48"/>
<circle fill="#069bcc" cx="229.39" cy="67.06" r="3.45"/>
<path fill="#069bcc" d="
  M 261.00 66.81
  L 261.00 67.56
  Q 259.92 71.20 256.57 70.45
  C 252.57 69.56 253.58 63.22 257.98 63.52
  Q 260.46 63.69 261.00 66.81
  Z"
/>
<path fill="#069bcc" d="
  M 0.00 99.44
  L 0.00 97.42
  Q 3.12 93.00 5.86 96.41
  C 9.31 100.72 1.88 104.79 0.00 99.44
  Z"
/>
<circle fill="#069bcc" cx="31.36" cy="98.54" r="3.46"/>
<circle fill="#069bcc" cx="59.52" cy="98.51" r="3.49"/>
<circle fill="#069bcc" cx="87.66" cy="98.54" r="3.47"/>
<circle fill="#069bcc" cx="115.75" cy="98.52" r="3.48"/>
<circle fill="#069bcc" cx="145.04" cy="98.51" r="3.48"/>
<circle fill="#069bcc" cx="173.11" cy="98.51" r="3.45"/>
<circle fill="#069bcc" cx="201.26" cy="98.51" r="3.49"/>
<circle fill="#069bcc" cx="229.41" cy="98.53" r="3.45"/>
<path fill="#069bcc" d="
  M 261.00 98.06
  L 261.00 98.81
  Q 259.24 103.46 255.79 101.38
  C 250.02 97.92 259.18 90.99 261.00 98.06
  Z"
/>
<path fill="#069bcc" d="
  M 0.00 130.94
  L 0.00 128.94
  C 1.56 125.09 6.48 125.96 6.72 130.06
  C 6.93 133.59 1.54 134.99 0.00 130.94
  Z"
/>
<circle fill="#069bcc" cx="31.41" cy="129.97" r="3.43"/>
<circle fill="#069bcc" cx="59.53" cy="129.96" r="3.45"/>
<circle fill="#069bcc" cx="87.66" cy="129.97" r="3.44"/>
<circle fill="#069bcc" cx="115.77" cy="129.97" r="3.47"/>
<circle fill="#069bcc" cx="145.05" cy="129.96" r="3.48"/>
<circle fill="#069bcc" cx="173.13" cy="129.97" r="3.45"/>
<circle fill="#069bcc" cx="201.28" cy="129.97" r="3.47"/>
<circle fill="#069bcc" cx="229.40" cy="129.99" r="3.43"/>
<path fill="#069bcc" d="
  M 261.00 129.81
  L 261.00 130.31
  Q 259.25 134.83 256.04 132.91
  C 249.89 129.23 259.36 122.35 261.00 129.81
  Z"
/>
<path fill="#069bcc" d="
  M 0.00 162.69
  L 0.00 160.19
  C 2.84 153.85 10.34 161.82 4.43 164.63
  Q 1.52 166.02 0.00 162.69
  Z"
/>
<circle fill="#069bcc" cx="31.27" cy="161.39" r="3.45"/>
<circle fill="#069bcc" cx="144.92" cy="161.37" r="3.46"/>
<circle fill="#069bcc" cx="173.03" cy="161.37" r="3.45"/>
<circle fill="#069bcc" cx="201.14" cy="161.38" r="3.46"/>
<circle fill="#069bcc" cx="229.24" cy="161.39" r="3.44"/>
<circle fill="#069bcc" cx="59.36" cy="161.42" r="3.46"/>
<circle fill="#069bcc" cx="87.53" cy="161.43" r="3.45"/>
<circle fill="#069bcc" cx="115.61" cy="161.42" r="3.44"/>
<circle fill="#069bcc" cx="257.35" cy="161.41" r="3.45"/>
<path fill="#069bcc" d="
  M 0.00 193.94
  L 0.00 191.69
  C 2.59 186.21 9.62 191.77 5.67 195.51
  C 3.55 197.52 1.04 196.45 0.00 193.94
  Z"
/>
<circle fill="#069bcc" cx="31.34" cy="192.94" r="3.51"/>
<circle fill="#069bcc" cx="59.52" cy="192.93" r="3.49"/>
<circle fill="#069bcc" cx="87.66" cy="192.94" r="3.50"/>
<circle fill="#069bcc" cx="115.83" cy="192.94" r="3.50"/>
<circle fill="#069bcc" cx="145.05" cy="192.95" r="3.50"/>
<circle fill="#069bcc" cx="173.10" cy="192.94" r="3.50"/>
<circle fill="#069bcc" cx="201.27" cy="192.94" r="3.50"/>
<circle fill="#069bcc" cx="229.39" cy="192.93" r="3.48"/>
<path fill="#069bcc" d="
  M 261.00 192.06
  L 261.00 193.81
  C 258.62 199.55 252.25 195.03 254.66 191.12
  C 256.33 188.40 260.08 189.09 261.00 192.06
  Z"
/>
</svg>
