<?xml version="1.0" encoding="UTF-8" standalone="no"?>
<!DOCTYPE svg PUBLIC "-//W3C//DTD SVG 1.1//EN" "http://www.w3.org/Graphics/SVG/1.1/DTD/svg11.dtd">
<svg xmlns="http://www.w3.org/2000/svg" version="1.1" viewBox="0.00 0.00 512.00 512.00">
<path fill="#000000" d="
  M 101.57 0.00
  L 410.44 0.00
  L 410.46 309.02
  Q 410.46 309.50 409.98 309.50
  L 102.01 309.50
  Q 101.53 309.50 101.53 309.01
  L 101.57 0.00
  Z
  M 309.07 142.73
  A 0.59 0.59 0.0 0 1 308.84 141.85
  C 332.24 109.02 322.20 64.45 286.79 45.19
  C 259.30 30.24 223.97 37.73 204.67 62.31
  C 186.01 86.07 185.90 116.91 203.23 141.92
  Q 203.54 142.36 203.05 142.59
  Q 179.27 153.99 174.55 178.32
  Q 173.43 184.09 173.47 198.25
  Q 173.55 235.09 173.48 271.71
  A 0.54 0.54 0.0 0 0 174.02 272.25
  L 337.27 272.25
  A 1.23 1.23 0.0 0 0 338.50 271.02
  Q 338.50 233.70 338.50 196.07
  Q 338.49 182.47 337.02 176.18
  Q 331.66 153.27 309.07 142.73
  Z"
/>
<circle fill="#000000" cx="256.00" cy="103.06" r="35.53"/>
<path fill="#000000" d="
  M 271.00 205.79
  L 271.00 169.26
  A 0.53 0.53 0.0 0 1 271.53 168.73
  C 284.06 168.82 301.29 165.38 307.08 180.64
  Q 308.52 184.46 308.51 193.06
  Q 308.48 217.22 308.51 241.27
  A 0.99 0.98 0.0 0 1 307.52 242.25
  L 204.26 242.25
  A 0.76 0.76 0.0 0 1 203.50 241.49
  Q 203.51 217.47 203.49 193.07
  Q 203.48 184.45 204.94 180.62
  C 210.73 165.39 227.88 168.84 240.42 168.70
  A 0.57 0.57 0.0 0 1 241.00 169.27
  L 241.00 205.75
  A 0.50 0.50 0.0 0 0 241.50 206.25
  L 270.52 206.27
  Q 271.00 206.27 271.00 205.79
  Z"
/>
<path fill="#000000" d="
  M 241.00 443.98
  A 0.52 0.52 0.0 0 1 240.48 444.50
  L 102.02 444.50
  A 0.52 0.52 0.0 0 1 101.50 443.98
  L 101.50 340.02
  A 0.52 0.52 0.0 0 1 102.02 339.50
  L 240.48 339.50
  A 0.52 0.52 0.0 0 1 241.00 340.02
  L 241.00 443.98
  Z
  M 186.25 377.52
  A 0.52 0.52 0.0 0 0 185.73 377.00
  L 156.77 377.00
  A 0.52 0.52 0.0 0 0 156.25 377.52
  L 156.25 406.48
  A 0.52 0.52 0.0 0 0 156.77 407.00
  L 185.73 407.00
  A 0.52 0.52 0.0 0 0 186.25 406.48
  L 186.25 377.52
  Z"
/>
<path fill="#000000" d="
  M 271.55 339.56
  Q 272.71 339.75 272.81 339.50
  Q 341.17 339.50 409.74 339.50
  A 0.76 0.76 0.0 0 1 410.50 340.26
  L 410.50 376.50
  A 0.50 0.50 0.0 0 1 410.00 377.00
  L 271.50 377.00
  A 0.50 0.50 0.0 0 1 271.00 376.50
  L 271.00 340.03
  A 0.48 0.47 -85.4 0 1 271.55 339.56
  Z"
/>
<rect fill="#000000" x="271.00" y="407.00" width="139.50" height="37.50" rx="0.51"/>
<path fill="#000000" d="
  M 410.31 512.00
  L 101.64 512.00
  L 101.59 475.13
  A 0.63 0.62 90.0 0 1 102.21 474.50
  L 409.97 474.50
  A 0.49 0.49 0.0 0 1 410.46 474.99
  L 410.31 512.00
  Z"
/>
</svg>
