<?xml version="1.0" encoding="UTF-8" standalone="no"?>
<!DOCTYPE svg PUBLIC "-//W3C//DTD SVG 1.1//EN" "http://www.w3.org/Graphics/SVG/1.1/DTD/svg11.dtd">
<svg xmlns="http://www.w3.org/2000/svg" version="1.1" viewBox="0.00 0.00 512.00 512.00">
<circle fill="#000000" cx="245.33" cy="143.87" r="117.28"/>
<path fill="#000000" d="
  M 318.23 451.23
  C 301.51 467.77 278.94 445.51 294.87 429.31
  Q 301.95 422.11 309.13 415.01
  A 0.70 0.70 0.0 0 0 309.23 414.13
  Q 302.15 402.86 299.17 389.86
  A 0.75 0.74 84.0 0 0 298.46 389.28
  Q 289.37 389.19 280.46 389.24
  Q 274.15 389.28 271.20 388.06
  C 255.16 381.42 260.24 357.22 277.32 357.28
  Q 287.94 357.31 298.58 357.21
  Q 299.08 357.21 299.19 356.73
  Q 302.12 343.83 309.19 332.67
  Q 309.48 332.20 309.10 331.80
  C 303.88 326.37 294.33 318.93 291.24 312.39
  C 284.74 298.64 298.80 284.35 312.56 291.23
  C 318.82 294.36 326.36 303.83 331.77 309.09
  Q 332.17 309.48 332.64 309.18
  Q 343.90 302.18 356.81 299.12
  A 0.69 0.68 83.7 0 0 357.34 298.45
  C 357.22 289.07 355.02 273.61 361.60 266.55
  C 369.27 258.31 383.22 260.30 387.83 270.67
  C 390.75 277.21 389.27 291.06 389.24 298.51
  A 0.65 0.65 0.0 0 0 389.74 299.14
  Q 402.67 302.09 413.93 309.10
  Q 414.44 309.42 414.93 309.06
  C 423.38 302.80 432.20 285.38 446.01 290.22
  C 454.71 293.27 459.48 302.47 456.14 311.10
  C 453.56 317.78 442.89 326.60 437.64 331.68
  A 0.85 0.84 -38.2 0 0 437.51 332.74
  Q 444.54 343.90 447.47 356.76
  A 0.62 0.62 0.0 0 0 448.09 357.25
  Q 454.02 357.23 459.85 357.28
  C 470.88 357.37 478.17 356.64 483.44 365.79
  C 487.79 373.35 484.10 384.49 475.84 387.92
  C 469.11 390.72 455.82 389.22 448.11 389.27
  A 0.65 0.64 5.7 0 0 447.49 389.77
  Q 444.56 402.77 437.45 414.02
  A 0.72 0.72 0.0 0 0 437.55 414.92
  Q 443.60 420.97 449.59 426.99
  C 455.54 432.97 458.95 438.12 456.40 446.16
  C 453.82 454.29 444.26 459.37 435.97 456.34
  C 429.13 453.83 420.14 442.84 414.89 437.48
  Q 414.53 437.12 414.10 437.39
  Q 402.83 444.56 389.82 447.50
  A 0.73 0.73 0.0 0 0 389.25 448.21
  Q 389.25 457.10 389.25 466.13
  Q 389.25 472.39 388.14 475.22
  C 382.65 489.28 362.42 488.21 358.08 473.84
  C 356.05 467.14 357.27 455.59 357.23 448.09
  Q 357.23 447.59 356.74 447.48
  Q 343.81 444.53 332.61 437.39
  Q 332.16 437.11 331.79 437.49
  Q 325.06 444.47 318.23 451.23
  Z
  M 417.23 373.33
  A 43.91 43.91 0.0 0 0 373.32 329.42
  A 43.91 43.91 0.0 0 0 329.41 373.33
  A 43.91 43.91 0.0 0 0 373.32 417.24
  A 43.91 43.91 0.0 0 0 417.23 373.33
  Z"
/>
<path fill="#000000" d="
  M 282.36 335.15
  Q 283.40 336.15 281.96 336.06
  C 261.61 334.74 244.31 346.83 240.46 367.26
  C 238.83 375.90 241.14 385.91 246.06 393.43
  Q 258.13 411.89 282.35 410.62
  A 0.40 0.40 0.0 0 1 282.64 411.31
  C 266.90 425.44 263.12 445.67 275.60 463.69
  A 0.36 0.36 0.0 0 1 275.30 464.25
  Q 170.10 464.27 64.76 464.18
  C 47.31 464.17 31.90 453.77 27.75 436.58
  Q 26.79 432.59 26.78 425.21
  C 26.76 412.01 25.60 396.41 27.99 384.41
  C 39.16 328.46 108.76 300.33 157.30 289.44
  Q 216.42 276.17 276.75 280.84
  A 0.31 0.31 0.0 0 1 276.97 281.34
  Q 267.84 292.69 268.23 306.44
  C 268.57 318.37 273.82 326.95 282.36 335.15
  Z"
/>
</svg>
