<?xml version="1.0" encoding="UTF-8" standalone="no"?>
<!DOCTYPE svg PUBLIC "-//W3C//DTD SVG 1.1//EN" "http://www.w3.org/Graphics/SVG/1.1/DTD/svg11.dtd">
<svg xmlns="http://www.w3.org/2000/svg" version="1.1" viewBox="0.00 0.00 512.00 512.00">
<path fill="#000000" fill-opacity="0.004" d="
  M 0.00 0.00
  L 512.00 0.00
  L 512.00 512.00
  L 0.00 512.00
  L 0.00 0.00
  Z
  M 409.94 257.09
  Q 410.54 256.37 411.56 256.31
  C 415.92 256.05 420.28 256.23 424.31 254.73
  C 439.02 249.25 451.79 235.71 452.12 219.48
  Q 452.30 210.57 448.36 202.04
  A 2.45 2.44 -22.4 0 1 449.75 198.72
  Q 471.43 190.83 475.33 167.16
  C 476.57 159.64 474.45 154.03 472.68 147.32
  C 472.20 145.52 472.33 144.57 474.13 143.72
  C 485.35 138.46 494.07 131.43 497.45 119.44
  Q 500.14 109.89 498.30 99.46
  C 497.00 92.12 493.61 86.36 488.49 81.17
  A 2.06 2.05 47.7 0 1 488.63 78.15
  C 492.08 75.24 496.07 72.41 498.73 68.88
  C 510.04 53.89 509.77 33.31 496.92 19.54
  C 491.89 14.15 487.03 9.95 480.24 7.78
  C 463.18 2.35 444.72 8.30 434.80 23.52
  C 433.72 25.18 432.50 25.74 430.87 24.37
  C 427.36 21.42 423.78 18.26 419.53 16.67
  C 404.85 11.22 387.09 14.34 375.82 25.95
  C 372.53 29.34 370.00 34.42 367.74 38.75
  A 2.53 2.52 21.7 0 1 364.80 40.01
  C 342.88 33.66 321.26 41.21 312.42 63.15
  A 1.93 1.92 -68.0 0 1 309.91 64.22
  Q 289.52 56.02 272.31 68.05
  C 261.42 75.67 255.17 86.88 254.92 99.93
  C 254.90 101.08 254.09 101.99 253.13 102.44
  Q 252.65 102.67 252.16 102.49
  C 245.43 100.12 232.88 100.09 226.18 102.63
  C 221.55 104.40 204.68 113.34 208.72 120.03
  C 223.97 145.29 235.49 174.80 239.23 204.17
  C 239.97 210.00 241.54 215.58 241.74 221.50
  Q 242.46 242.47 241.24 263.42
  Q 241.05 266.74 240.48 270.10
  A 0.57 0.57 0.0 0 0 241.04 270.76
  C 253.99 270.62 266.91 268.01 279.69 268.82
  Q 286.00 269.22 301.98 271.31
  C 305.40 271.76 310.26 271.65 314.40 272.66
  Q 320.06 274.03 320.15 274.05
  Q 352.58 280.63 381.65 296.37
  C 385.33 298.37 390.01 301.28 394.62 303.25
  A 2.21 2.17 -49.6 0 0 396.66 303.07
  C 412.47 292.82 414.69 274.73 409.76 257.92
  Q 409.63 257.46 409.94 257.09
  Z
  M 34.38 281.59
  C 18.63 296.93 5.82 318.91 4.35 341.31
  Q 3.33 357.01 4.72 367.51
  Q 8.02 392.25 25.94 412.57
  C 27.92 414.81 30.66 412.37 32.18 410.93
  C 42.39 401.21 54.40 388.48 61.84 380.95
  Q 81.47 361.10 101.10 341.24
  C 126.73 315.30 155.85 296.17 190.25 283.56
  Q 199.32 280.24 202.74 279.50
  C 206.77 278.61 208.54 277.16 209.19 272.84
  C 218.00 213.74 199.24 160.43 164.15 112.82
  C 161.35 109.03 157.72 105.24 154.59 101.36
  C 151.25 97.24 143.72 93.78 140.29 99.61
  Q 139.74 100.54 138.35 105.40
  C 136.60 111.53 135.62 118.89 134.55 123.93
  C 131.94 136.09 129.66 148.27 127.00 160.44
  C 121.23 186.85 110.10 205.39 91.26 224.42
  C 72.37 243.50 53.62 262.86 34.38 281.59
  Z
  M 232.16 476.16
  C 251.73 456.89 270.89 437.23 290.31 417.81
  Q 314.70 393.40 347.92 385.03
  C 354.02 383.50 362.03 381.93 368.95 380.51
  Q 385.71 377.07 402.58 374.09
  Q 406.35 373.42 411.50 371.65
  C 417.03 369.75 418.58 365.13 413.88 360.84
  C 386.16 335.55 353.06 317.02 315.32 307.62
  C 253.22 292.15 187.78 308.72 139.58 349.72
  Q 134.56 353.99 124.92 363.31
  Q 88.35 398.67 52.51 434.75
  Q 51.29 435.97 50.70 437.40
  Q 50.50 437.88 50.87 438.24
  Q 72.32 458.99 93.50 479.99
  C 115.12 501.42 142.58 509.95 172.82 506.86
  C 196.11 504.48 215.38 492.67 232.16 476.16
  Z"
/>
<path fill="#000000" d="
  M 409.94 257.09
  Q 409.63 257.46 409.76 257.92
  C 414.69 274.73 412.47 292.82 396.66 303.07
  A 2.21 2.17 -49.6 0 1 394.62 303.25
  C 390.01 301.28 385.33 298.37 381.65 296.37
  Q 352.58 280.63 320.15 274.05
  Q 320.06 274.03 314.40 272.66
  C 310.26 271.65 305.40 271.76 301.98 271.31
  Q 286.00 269.22 279.69 268.82
  C 266.91 268.01 253.99 270.62 241.04 270.76
  A 0.57 0.57 0.0 0 1 240.48 270.10
  Q 241.05 266.74 241.24 263.42
  Q 242.46 242.47 241.74 221.50
  C 241.54 215.58 239.97 210.00 239.23 204.17
  C 235.49 174.80 223.97 145.29 208.72 120.03
  C 204.68 113.34 221.55 104.40 226.18 102.63
  C 232.88 100.09 245.43 100.12 252.16 102.49
  Q 252.65 102.67 253.13 102.44
  C 254.09 101.99 254.90 101.08 254.92 99.93
  C 255.17 86.88 261.42 75.67 272.31 68.05
  Q 289.52 56.02 309.91 64.22
  A 1.93 1.92 -68.0 0 0 312.42 63.15
  C 321.26 41.21 342.88 33.66 364.80 40.01
  A 2.53 2.52 21.7 0 0 367.74 38.75
  C 370.00 34.42 372.53 29.34 375.82 25.95
  C 387.09 14.34 404.85 11.22 419.53 16.67
  C 423.78 18.26 427.36 21.42 430.87 24.37
  C 432.50 25.74 433.72 25.18 434.80 23.52
  C 444.72 8.30 463.18 2.35 480.24 7.78
  C 487.03 9.95 491.89 14.15 496.92 19.54
  C 509.77 33.31 510.04 53.89 498.73 68.88
  C 496.07 72.41 492.08 75.24 488.63 78.15
  A 2.06 2.05 47.7 0 0 488.49 81.17
  C 493.61 86.36 497.00 92.12 498.30 99.46
  Q 500.14 109.89 497.45 119.44
  C 494.07 131.43 485.35 138.46 474.13 143.72
  C 472.33 144.57 472.20 145.52 472.68 147.32
  C 474.45 154.03 476.57 159.64 475.33 167.16
  Q 471.43 190.83 449.75 198.72
  A 2.45 2.44 -22.4 0 0 448.36 202.04
  Q 452.30 210.57 452.12 219.48
  C 451.79 235.71 439.02 249.25 424.31 254.73
  C 420.28 256.23 415.92 256.05 411.56 256.31
  Q 410.54 256.37 409.94 257.09
  Z"
/>
<path fill="#000000" d="
  M 34.38 281.59
  C 53.62 262.86 72.37 243.50 91.26 224.42
  C 110.10 205.39 121.23 186.85 127.00 160.44
  C 129.66 148.27 131.94 136.09 134.55 123.93
  C 135.62 118.89 136.60 111.53 138.35 105.40
  Q 139.74 100.54 140.29 99.61
  C 143.72 93.78 151.25 97.24 154.59 101.36
  C 157.72 105.24 161.35 109.03 164.15 112.82
  C 199.24 160.43 218.00 213.74 209.19 272.84
  C 208.54 277.16 206.77 278.61 202.74 279.50
  Q 199.32 280.24 190.25 283.56
  C 155.85 296.17 126.73 315.30 101.10 341.24
  Q 81.47 361.10 61.84 380.95
  C 54.40 388.48 42.39 401.21 32.18 410.93
  C 30.66 412.37 27.92 414.81 25.94 412.57
  Q 8.02 392.25 4.72 367.51
  Q 3.33 357.01 4.35 341.31
  C 5.82 318.91 18.63 296.93 34.38 281.59
  Z"
/>
<path fill="#000000" d="
  M 290.31 417.81
  C 270.89 437.23 251.73 456.89 232.16 476.16
  C 215.38 492.67 196.11 504.48 172.82 506.86
  C 142.58 509.95 115.12 501.42 93.50 479.99
  Q 72.32 458.99 50.87 438.24
  Q 50.50 437.88 50.70 437.40
  Q 51.29 435.97 52.51 434.75
  Q 88.35 398.67 124.92 363.31
  Q 134.56 353.99 139.58 349.72
  C 187.78 308.72 253.22 292.15 315.32 307.62
  C 353.06 317.02 386.16 335.55 413.88 360.84
  C 418.58 365.13 417.03 369.75 411.50 371.65
  Q 406.35 373.42 402.58 374.09
  Q 385.71 377.07 368.95 380.51
  C 362.03 381.93 354.02 383.50 347.92 385.03
  Q 314.70 393.40 290.31 417.81
  Z"
/>
</svg>
