<?xml version="1.0" encoding="UTF-8" standalone="no"?>
<!DOCTYPE svg PUBLIC "-//W3C//DTD SVG 1.1//EN" "http://www.w3.org/Graphics/SVG/1.1/DTD/svg11.dtd">
<svg xmlns="http://www.w3.org/2000/svg" version="1.1" viewBox="0.00 0.00 512.00 512.00">
<path fill="#000000" d="
  M 169.82 191.88
  L 103.69 85.99
  A 0.48 0.48 0.0 0 1 104.10 85.26
  L 230.74 85.25
  A 0.48 0.48 0.0 0 1 231.16 85.97
  L 170.65 191.86
  A 0.48 0.48 0.0 0 1 169.82 191.88
  Z"
/>
<path fill="#000000" d="
  M 342.41 191.41
  C 342.09 191.91 342.25 192.46 341.44 191.92
  A 0.41 0.28 12.7 0 1 341.31 191.78
  L 280.72 85.76
  A 0.34 0.34 0.0 0 1 281.02 85.25
  Q 342.42 85.25 403.75 85.27
  Q 405.85 85.28 407.95 85.63
  Q 408.50 85.72 408.20 86.20
  Q 375.38 138.85 342.41 191.41
  Z"
/>
<path fill="#000000" d="
  M 189.40 202.04
  L 255.59 86.20
  A 0.47 0.47 0.0 0 1 256.41 86.20
  L 322.60 202.04
  A 0.47 0.47 0.0 0 1 322.19 202.75
  L 189.81 202.75
  A 0.47 0.47 0.0 0 1 189.40 202.04
  Z"
/>
<path fill="#000000" d="
  M 86.52 98.79
  L 151.00 201.99
  A 0.50 0.50 0.0 0 1 150.58 202.75
  L 3.54 202.75
  A 0.50 0.50 0.0 0 1 3.15 201.94
  L 85.71 98.74
  A 0.50 0.50 0.0 0 1 86.52 98.79
  Z"
/>
<path fill="#000000" d="
  M 426.33 98.77
  L 508.82 201.91
  A 0.52 0.52 0.0 0 1 508.42 202.75
  L 361.47 202.75
  A 0.52 0.52 0.0 0 1 361.03 201.95
  L 425.48 98.82
  A 0.52 0.52 0.0 0 1 426.33 98.77
  Z"
/>
<path fill="#000000" d="
  M 3.12 224.00
  L 162.07 224.00
  A 0.32 0.32 0.0 0 1 162.38 224.24
  L 229.08 490.92
  A 0.32 0.32 0.0 0 1 228.52 491.20
  L 2.88 224.53
  A 0.32 0.32 0.0 0 1 3.12 224.00
  Z"
/>
<path fill="#000000" d="
  M 255.69 509.54
  L 184.41 224.39
  A 0.31 0.31 0.0 0 1 184.71 224.00
  L 327.28 224.00
  A 0.31 0.31 0.0 0 1 327.58 224.39
  L 256.29 509.54
  A 0.31 0.31 0.0 0 1 255.69 509.54
  Z"
/>
<path fill="#000000" d="
  M 349.92 224.00
  L 508.92 224.00
  A 0.31 0.31 0.0 0 1 509.16 224.51
  L 283.48 491.23
  A 0.31 0.31 0.0 0 1 282.94 490.96
  L 349.62 224.23
  A 0.31 0.31 0.0 0 1 349.92 224.00
  Z"
/>
</svg>
