<?xml version="1.0" encoding="UTF-8" standalone="no"?>
<!DOCTYPE svg PUBLIC "-//W3C//DTD SVG 1.1//EN" "http://www.w3.org/Graphics/SVG/1.1/DTD/svg11.dtd">
<svg xmlns="http://www.w3.org/2000/svg" version="1.1" viewBox="0.00 0.00 2000.00 710.00">
<g stroke-width="2.00" fill="none" stroke-linecap="butt">
<path stroke="#c3592e" vector-effect="non-scaling-stroke" d="
  M 934.23 11.90
  L 941.51 11.59"
/>
<path stroke="#5d4719" vector-effect="non-scaling-stroke" d="
  M 952.48 9.68
  Q 957.42 10.11 962.39 8.90"
/>
<path stroke="#c3592e" vector-effect="non-scaling-stroke" d="
  M 591.04 115.09
  L 590.41 116.51
  Q 590.27 116.83 589.93 116.85
  L 562.40 118.72
  Q 561.98 118.75 561.61 118.56
  Q 558.21 116.78 554.52 118.31
  A 1.07 0.71 0.8 0 1 553.06 117.31
  L 553.31 117.07
  Q 553.64 116.74 553.17 116.77
  Q 552.65 116.80 552.25 116.54"
/>
<path stroke="#661215" vector-effect="non-scaling-stroke" d="
  M 714.14 181.89
  Q 714.36 183.33 715.50 184.21"
/>
<path stroke="#661215" vector-effect="non-scaling-stroke" d="
  M 638.53 444.31
  Q 641.04 444.14 641.74 445.21
  A 0.82 0.81 47.4 0 1 641.71 446.12
  Q 640.68 447.56 642.46 449.62"
/>
<path stroke="#5d4719" vector-effect="non-scaling-stroke" d="
  M 1361.71 119.78
  Q 1359.62 120.23 1357.77 119.35
  C 1353.06 117.11 1353.93 120.33 1350.81 122.05"
/>
<path stroke="#5d4719" vector-effect="non-scaling-stroke" d="
  M 1419.11 152.20
  Q 1423.04 154.86 1427.50 156.46"
/>
<path stroke="#d5423d" vector-effect="non-scaling-stroke" d="
  M 457.75 122.61
  Q 457.88 122.69 457.92 122.82
  A 0.18 0.18 0.0 0 1 457.86 123.02
  L 457.47 123.30
  Q 457.39 123.36 457.47 123.41
  Q 457.73 123.58 457.84 123.72
  A 0.29 0.28 -17.4 0 1 457.60 124.17
  Q 453.80 124.10 450.01 124.33
  Q 447.01 124.52 442.93 124.07
  C 437.41 123.46 430.42 124.47 426.68 124.59
  Q 421.98 124.73 417.28 124.81
  C 409.15 124.95 400.69 124.15 392.32 124.40
  C 386.65 124.57 381.29 124.38 375.74 124.58
  Q 375.28 124.60 374.92 124.88
  C 373.72 125.82 371.18 124.53 369.77 124.71
  C 367.18 125.05 364.76 124.47 362.08 124.91
  C 358.36 125.53 354.66 124.41 351.32 124.56
  C 343.64 124.91 335.13 124.58 328.31 124.69
  Q 321.05 124.79 313.77 124.71
  Q 313.50 124.71 313.50 124.98
  Q 313.50 125.15 313.50 125.30
  A 0.41 0.40 89.3 0 1 313.10 125.72
  Q 284.26 125.89 255.44 125.90
  Q 206.31 125.90 157.19 125.72
  C 153.45 125.70 149.31 124.52 145.66 124.52
  Q 128.68 124.55 111.68 124.64
  Q 111.19 124.64 110.89 125.02
  C 109.75 126.49 98.35 125.81 95.94 125.85
  C 92.26 125.91 64.41 126.55 63.39 125.27
  A 2.15 2.14 -44.4 0 0 60.06 125.24
  Q 58.82 126.73 57.15 125.53
  Q 56.73 125.23 56.42 124.82
  C 54.48 122.26 52.54 126.91 52.76 128.52
  Q 53.42 133.56 53.50 138.63
  Q 53.50 138.68 53.46 138.71
  Q 53.36 138.78 53.26 138.86
  Q 53.01 139.05 53.01 139.36
  Q 52.66 154.79 53.14 178.69
  Q 53.48 195.63 53.44 229.19
  Q 53.36 293.50 53.32 357.81
  Q 53.31 366.11 53.21 377.81
  C 52.87 419.53 53.20 461.29 53.31 503.01
  Q 53.34 518.31 51.55 533.51"
/>
</g>
<path fill="#ba8e32" d="
  M 934.23 11.90
  L 941.51 11.59
  Q 943.96 11.39 946.36 10.87
  A 0.25 0.15 -38.3 0 0 946.51 10.49
  Q 946.24 10.51 946.00 10.49
  A 0.04 0.04 0.0 0 1 946.00 10.41
  L 952.48 9.68
  Q 957.42 10.11 962.39 8.90
  C 971.69 8.04 982.97 8.34 990.32 8.25
  C 997.45 8.16 1005.22 7.64 1012.06 9.17
  Q 1016.69 10.21 1020.99 11.72
  A 2.88 2.88 0.0 0 1 1022.91 14.41
  Q 1023.36 62.77 1022.37 111.44
  C 1022.31 114.14 1021.32 116.91 1021.01 119.72
  Q 1020.95 120.26 1020.46 120.51
  C 1017.23 122.12 1009.60 118.42 1004.50 116.69
  C 992.29 112.53 974.47 112.29 962.32 116.18
  C 952.37 119.36 939.11 126.45 933.28 135.80
  C 930.12 140.86 926.86 148.52 924.80 155.23
  C 920.52 169.14 916.13 182.66 912.87 197.08
  C 905.15 231.18 897.52 257.11 887.58 286.29
  Q 885.32 292.91 887.72 300.05
  Q 888.38 302.03 890.49 301.45
  C 897.69 299.47 904.00 297.79 911.24 294.42
  C 916.02 292.21 921.74 290.38 925.82 288.71
  C 954.33 276.96 982.77 265.07 1011.72 254.43
  Q 1023.95 249.93 1037.31 241.56
  C 1047.59 235.12 1054.87 227.03 1056.11 214.79
  C 1057.14 204.58 1059.41 193.29 1058.96 184.02
  C 1058.52 175.10 1056.88 165.53 1052.77 157.51
  C 1049.25 150.67 1044.87 147.32 1041.50 141.88
  A 1.99 1.98 -18.4 0 1 1043.02 138.86
  C 1063.88 136.99 1090.43 138.78 1117.49 137.96
  Q 1134.49 137.45 1151.50 137.52
  C 1155.25 137.53 1157.41 137.76 1159.47 141.21
  C 1163.14 147.37 1164.65 155.97 1165.13 162.76
  Q 1167.36 194.42 1165.53 226.06
  C 1163.86 254.84 1151.46 283.42 1128.18 300.67
  C 1115.29 310.22 1100.07 318.44 1084.19 324.66
  Q 1057.26 335.21 1029.95 344.73
  C 1011.03 351.32 992.90 359.61 973.95 366.00
  C 959.98 370.71 944.68 377.01 932.62 381.50
  C 915.63 387.82 898.84 394.63 881.62 400.29
  C 870.71 403.88 860.17 408.65 850.89 415.51
  C 837.58 425.33 824.46 439.40 810.82 450.62
  Q 792.97 465.32 775.53 480.51
  Q 761.37 492.85 750.10 504.10
  C 744.45 509.73 743.58 515.24 743.48 523.79
  Q 743.40 531.45 742.99 542.00
  C 742.76 548.08 741.08 553.93 740.14 558.72
  C 737.64 571.43 732.61 584.13 727.02 595.38
  Q 714.65 620.27 696.68 639.43
  C 688.75 647.90 678.34 655.80 668.86 662.89
  Q 650.57 676.54 629.29 685.03
  C 624.28 687.03 617.46 688.66 611.70 690.95
  C 606.34 693.07 597.20 694.82 590.22 695.47
  C 572.01 697.16 557.06 696.75 540.22 695.57
  Q 529.35 694.81 520.43 692.88
  C 500.37 688.54 477.61 681.30 460.61 669.49
  C 444.06 658.00 432.63 650.87 424.39 634.72
  C 422.88 631.76 423.04 629.46 425.79 627.56
  C 430.08 624.61 433.44 622.18 438.67 620.12
  C 443.85 618.08 449.11 614.13 452.84 612.02
  Q 465.45 604.91 477.31 596.62
  Q 479.47 595.11 482.53 594.03
  Q 487.91 592.13 492.64 588.89
  C 495.42 587.00 502.32 591.35 504.41 592.84
  Q 512.75 598.78 520.95 603.01
  C 525.63 605.43 531.37 607.27 536.73 609.20
  Q 540.04 610.40 543.29 610.68
  C 557.85 611.94 575.66 612.98 589.80 608.89
  C 603.27 605.00 616.55 598.94 626.88 589.16
  C 635.55 580.94 643.12 571.97 649.12 561.42
  C 654.20 552.47 658.85 544.83 659.11 534.64
  C 659.98 500.20 659.15 465.76 658.84 431.31
  C 658.76 422.05 666.30 415.03 673.19 409.13
  C 692.22 392.82 711.19 376.24 729.19 358.80
  Q 734.25 353.90 739.93 349.77
  A 1.53 1.52 -22.6 0 1 742.34 350.76
  C 743.55 358.28 742.49 366.23 744.82 373.96
  Q 744.99 374.50 745.55 374.52
  C 750.29 374.68 751.82 371.87 754.91 369.59
  Q 769.14 359.12 779.62 347.84
  C 785.68 341.32 784.51 335.67 786.83 327.84
  C 789.12 320.09 791.37 312.99 792.86 304.67
  Q 795.21 291.57 799.12 278.84
  C 801.96 269.58 802.67 259.74 803.98 250.25
  C 804.76 244.62 807.36 239.49 808.38 234.36
  Q 811.50 218.75 815.66 203.41
  C 818.80 191.85 820.51 179.80 823.53 168.04
  C 826.56 156.26 828.02 145.38 829.91 133.86
  C 830.46 130.49 832.13 127.62 832.85 124.35
  Q 835.07 114.33 837.27 104.30
  C 838.53 98.55 841.41 93.99 842.92 88.43
  Q 845.27 79.79 849.30 71.87
  C 857.32 56.12 867.25 42.69 882.07 32.57
  Q 886.28 29.70 898.87 23.73
  C 906.06 20.32 915.06 17.83 922.97 14.07
  C 926.77 12.26 930.22 12.30 934.23 11.90
  Z"
/>
<path fill="#000000" d="
  M 962.39 8.90
  Q 957.42 10.11 952.48 9.68
  Q 957.34 8.74 962.39 8.90
  Z"
/>
<path fill="#cb232a" d="
  M 941.51 11.59
  L 934.23 11.90
  Q 937.71 11.09 941.51 11.59
  Z"
/>
<path fill="#ba8e32" d="
  M 591.04 115.09
  L 590.41 116.51
  Q 590.27 116.83 589.93 116.85
  L 562.40 118.72
  Q 561.98 118.75 561.61 118.56
  Q 558.21 116.78 554.52 118.31
  A 1.07 0.71 0.8 0 1 553.06 117.31
  L 553.31 117.07
  Q 553.64 116.74 553.17 116.77
  Q 552.65 116.80 552.25 116.54
  C 559.29 115.82 566.65 114.41 573.29 114.34
  Q 582.17 114.23 591.04 115.09
  Z"
/>
<path fill="#cb232a" d="
  M 591.04 115.09
  C 597.66 115.51 603.93 117.82 609.96 118.89
  C 615.74 119.92 620.88 121.58 626.99 122.30
  C 633.68 123.08 639.63 126.30 645.63 128.67
  C 661.69 135.02 675.57 142.77 688.72 154.02
  C 697.68 161.68 705.84 172.53 714.14 181.89
  Q 714.36 183.33 715.50 184.21
  C 722.08 195.65 730.71 209.24 734.05 220.23
  C 736.41 227.99 738.65 235.78 741.22 243.47
  C 742.54 247.42 745.71 262.08 740.33 263.74
  Q 740.09 263.81 736.19 264.17
  C 725.30 265.20 713.64 264.42 703.02 266.54
  C 688.42 269.45 675.91 273.31 661.85 273.05
  C 658.93 273.00 655.45 274.16 651.95 272.39
  Q 651.48 272.15 651.30 271.65
  Q 648.39 263.48 645.46 255.37
  C 641.42 244.23 638.70 232.77 631.09 223.32
  C 622.87 213.13 605.61 198.68 591.90 197.93
  Q 576.24 197.09 559.25 197.54
  C 550.27 197.78 535.74 206.63 529.30 212.78
  C 519.55 222.11 512.02 235.80 508.57 248.57
  C 505.21 261.02 501.38 273.54 499.61 286.05
  Q 496.72 306.49 495.45 327.11
  Q 495.10 332.78 495.40 341.91
  C 495.61 348.55 495.27 355.22 495.97 361.68
  Q 497.57 376.50 499.00 391.33
  Q 499.40 395.47 500.77 399.49
  C 503.77 408.29 506.13 417.57 509.91 426.04
  C 513.10 433.17 515.48 439.51 520.89 445.40
  C 528.03 453.16 538.11 466.58 549.84 468.68
  C 557.44 470.03 563.92 472.84 572.24 473.66
  C 575.32 473.96 581.84 475.39 585.99 474.43
  Q 593.50 472.69 608.93 467.82
  C 622.18 463.63 628.39 453.81 638.53 444.31
  Q 641.04 444.14 641.74 445.21
  A 0.82 0.81 47.4 0 1 641.71 446.12
  Q 640.68 447.56 642.46 449.62
  C 642.01 450.64 642.50 451.57 642.49 452.45
  Q 641.93 501.41 642.23 528.75
  C 642.32 536.99 635.56 540.35 628.80 542.28
  Q 617.57 545.48 606.45 549.09
  C 594.55 552.96 580.99 553.31 568.57 553.06
  C 554.23 552.77 541.50 552.65 525.85 550.47
  Q 519.71 549.62 513.86 547.65
  C 504.69 544.56 495.45 541.61 486.92 536.99
  C 483.40 535.08 479.45 533.84 476.34 531.50
  Q 456.11 516.20 439.79 496.86
  Q 435.70 492.01 432.01 485.62
  Q 425.97 475.14 420.01 464.60
  C 419.60 463.88 419.95 463.18 419.54 462.54
  C 412.85 452.10 407.35 442.06 405.09 431.27
  C 403.32 422.84 400.15 415.42 398.55 407.22
  Q 395.74 392.87 394.35 382.73
  C 393.68 377.90 392.33 372.99 391.85 369.04
  Q 388.05 338.05 392.64 307.09
  C 393.25 303.02 395.16 299.33 395.58 295.52
  Q 396.75 284.90 397.97 274.29
  C 398.45 270.16 399.41 264.60 401.04 260.70
  C 405.40 250.25 406.56 239.47 411.46 229.57
  C 414.42 223.61 417.03 217.81 420.59 212.03
  Q 424.58 205.54 428.30 198.90
  C 431.31 193.53 435.26 188.64 438.71 183.46
  Q 443.13 176.80 451.50 168.10
  Q 457.58 161.77 466.35 154.85
  C 475.53 147.61 484.82 139.98 494.95 134.13
  C 500.52 130.92 507.66 128.94 514.69 126.19
  Q 528.98 120.57 552.25 116.54
  Q 552.65 116.80 553.17 116.77
  Q 553.64 116.74 553.31 117.07
  L 553.06 117.31
  A 1.07 0.71 0.8 0 0 554.52 118.31
  Q 558.21 116.78 561.61 118.56
  Q 561.98 118.75 562.40 118.72
  L 589.93 116.85
  Q 590.27 116.83 590.41 116.51
  L 591.04 115.09
  Z"
/>
<path fill="#000000" d="
  M 1361.71 119.78
  Q 1359.62 120.23 1357.77 119.35
  C 1353.06 117.11 1353.93 120.33 1350.81 122.05
  C 1351.60 120.43 1355.11 113.82 1357.39 117.83
  A 0.95 0.92 -9.4 0 0 1358.08 118.31
  Q 1360.05 118.62 1361.71 119.78
  Z"
/>
<path fill="#ba8e32" d="
  M 1361.71 119.78
  Q 1376.14 126.79 1390.08 134.66
  C 1396.28 138.15 1402.94 143.49 1409.77 147.40
  C 1412.33 148.86 1416.19 149.96 1419.11 152.20
  Q 1423.04 154.86 1427.50 156.46
  C 1429.28 157.39 1431.08 157.85 1432.68 159.14
  C 1435.55 161.45 1439.28 162.56 1441.93 164.20
  C 1448.12 168.04 1455.05 171.86 1460.65 175.38
  C 1471.33 182.09 1481.33 188.82 1492.72 195.44
  Q 1520.04 211.33 1546.53 231.99
  C 1554.99 238.59 1561.68 246.06 1568.40 253.82
  Q 1572.68 258.76 1575.50 263.98
  C 1583.07 277.97 1589.60 293.92 1593.40 310.44
  C 1595.21 318.29 1594.63 327.66 1594.53 336.05
  C 1594.45 343.28 1592.16 350.30 1590.54 357.32
  C 1588.70 365.26 1585.23 372.21 1582.08 379.64
  Q 1575.23 395.81 1567.17 406.43
  C 1554.34 423.33 1540.80 438.92 1522.22 449.20
  Q 1504.44 459.04 1484.49 463.76
  Q 1480.18 464.78 1475.73 465.02
  C 1457.82 465.99 1443.33 465.78 1427.66 461.24
  C 1403.67 454.29 1383.44 440.86 1361.69 429.27
  C 1353.91 425.12 1346.46 421.55 1339.01 416.25
  Q 1327.60 408.13 1315.98 402.79
  C 1311.82 400.87 1305.52 399.41 1302.33 404.57
  C 1297.85 411.83 1293.97 420.44 1290.22 426.92
  C 1272.67 457.22 1255.49 487.73 1237.95 518.04
  C 1229.43 532.77 1220.60 546.00 1210.79 559.30
  C 1203.60 569.05 1194.79 577.81 1185.81 585.91
  C 1162.63 606.82 1132.39 622.44 1102.83 631.87
  Q 1093.39 634.89 1083.37 636.28
  C 1064.08 638.95 1044.82 639.64 1025.40 637.95
  C 1010.35 636.64 998.53 635.39 984.74 630.66
  Q 961.24 622.58 939.32 611.02
  C 915.57 598.49 897.03 579.66 880.31 559.27
  C 866.45 542.37 855.79 523.35 847.93 502.99
  C 843.87 492.49 841.01 479.76 837.66 468.07
  C 835.13 459.26 855.44 435.80 861.81 429.80
  C 872.34 419.87 883.49 417.62 895.12 412.54
  C 903.60 408.84 912.79 406.24 921.37 402.04
  C 924.88 400.32 927.81 400.36 931.48 399.90
  C 935.63 399.39 936.22 402.45 936.05 405.84
  Q 934.96 427.34 937.57 448.74
  C 939.70 466.17 946.64 480.22 956.12 494.60
  C 965.11 508.24 976.29 515.14 989.72 524.93
  C 995.32 529.02 1003.81 531.54 1009.51 533.69
  Q 1013.73 535.27 1018.70 535.89
  C 1032.20 537.57 1044.40 539.53 1058.48 537.18
  C 1063.80 536.29 1069.81 536.01 1074.48 534.98
  C 1102.48 528.76 1124.63 508.16 1139.55 484.61
  C 1145.20 475.69 1151.24 466.81 1156.39 457.84
  Q 1183.14 411.14 1192.55 394.06
  C 1209.25 363.69 1227.24 334.20 1244.43 304.13
  Q 1277.55 246.24 1310.40 188.19
  Q 1312.18 185.04 1318.04 176.02
  Q 1321.93 170.02 1325.07 163.60
  C 1330.83 151.82 1338.05 140.89 1344.89 129.74
  C 1346.65 126.89 1348.68 124.55 1350.81 122.05
  C 1353.93 120.33 1353.06 117.11 1357.77 119.35
  Q 1359.62 120.23 1361.71 119.78
  Z
  M 1349.18 330.27
  C 1352.00 333.99 1357.19 337.16 1360.10 338.85
  C 1372.90 346.24 1388.86 356.37 1403.97 363.67
  C 1411.56 367.33 1420.44 370.18 1428.75 373.31
  C 1438.47 376.97 1450.41 373.32 1459.28 369.32
  C 1472.40 363.39 1482.67 350.85 1488.89 338.08
  C 1500.52 314.23 1487.43 287.13 1467.11 272.87
  C 1454.69 264.15 1441.68 256.50 1429.12 248.02
  Q 1420.80 242.40 1411.45 238.57
  C 1409.59 237.81 1407.44 237.83 1405.42 237.16
  C 1397.92 234.68 1393.63 243.62 1391.07 248.96
  C 1381.41 269.06 1369.54 288.24 1357.98 307.30
  C 1355.74 310.98 1346.31 326.47 1349.18 330.27
  Z"
/>
<path fill="#de614f" d="
  M 457.75 122.61
  Q 457.88 122.69 457.92 122.82
  A 0.18 0.18 0.0 0 1 457.86 123.02
  L 457.47 123.30
  Q 457.39 123.36 457.47 123.41
  Q 457.73 123.58 457.84 123.72
  A 0.29 0.28 -17.4 0 1 457.60 124.17
  Q 453.80 124.10 450.01 124.33
  Q 447.01 124.52 442.93 124.07
  C 437.41 123.46 430.42 124.47 426.68 124.59
  Q 421.98 124.73 417.28 124.81
  C 409.15 124.95 400.69 124.15 392.32 124.40
  C 386.65 124.57 381.29 124.38 375.74 124.58
  Q 375.28 124.60 374.92 124.88
  C 373.72 125.82 371.18 124.53 369.77 124.71
  C 367.18 125.05 364.76 124.47 362.08 124.91
  C 358.36 125.53 354.66 124.41 351.32 124.56
  C 343.64 124.91 335.13 124.58 328.31 124.69
  Q 321.05 124.79 313.77 124.71
  Q 313.50 124.71 313.50 124.98
  Q 313.50 125.15 313.50 125.30
  A 0.41 0.40 89.3 0 1 313.10 125.72
  Q 284.26 125.89 255.44 125.90
  Q 206.31 125.90 157.19 125.72
  C 153.45 125.70 149.31 124.52 145.66 124.52
  Q 128.68 124.55 111.68 124.64
  Q 111.19 124.64 110.89 125.02
  C 109.75 126.49 98.35 125.81 95.94 125.85
  C 92.26 125.91 64.41 126.55 63.39 125.27
  A 2.15 2.14 -44.4 0 0 60.06 125.24
  Q 58.82 126.73 57.15 125.53
  Q 56.73 125.23 56.42 124.82
  C 54.48 122.26 52.54 126.91 52.76 128.52
  Q 53.42 133.56 53.50 138.63
  Q 53.50 138.68 53.46 138.71
  Q 53.36 138.78 53.26 138.86
  Q 53.01 139.05 53.01 139.36
  Q 52.66 154.79 53.14 178.69
  Q 53.48 195.63 53.44 229.19
  Q 53.36 293.50 53.32 357.81
  Q 53.31 366.11 53.21 377.81
  C 52.87 419.53 53.20 461.29 53.31 503.01
  Q 53.34 518.31 51.55 533.51
  L 51.37 123.04
  A 0.72 0.72 0.0 0 1 51.91 122.34
  Q 53.60 121.91 55.25 121.97
  C 69.71 122.51 87.43 122.01 98.57 122.01
  Q 247.63 122.00 396.69 121.98
  C 415.13 121.98 434.54 121.74 453.50 122.09
  Q 454.75 122.11 457.75 122.61
  Z"
/>
<path fill="#000000" d="
  M 1454.87 156.55
  C 1450.07 156.01 1442.15 150.15 1437.87 147.42
  Q 1437.53 147.21 1437.31 146.88
  Q 1436.75 146.03 1435.32 146.27
  Q 1434.87 146.34 1434.58 145.99
  Q 1432.48 143.47 1429.27 143.41
  Q 1428.70 143.40 1428.23 143.08
  Q 1421.07 138.10 1412.60 135.95
  Q 1412.07 135.81 1411.73 135.39
  C 1408.66 131.64 1404.71 130.32 1401.33 127.19
  Q 1400.97 126.85 1400.88 126.37
  C 1400.25 123.02 1402.66 122.03 1405.57 122.13
  C 1415.22 122.45 1426.34 121.93 1434.48 121.97
  C 1601.22 122.67 1768.00 121.96 1934.75 122.00
  Q 1941.12 122.01 1947.23 122.29
  Q 1949.12 122.38 1949.24 124.26
  C 1949.75 131.86 1949.03 141.09 1949.02 147.00
  Q 1948.97 171.00 1949.02 195.00
  Q 1949.03 197.71 1947.12 207.95
  Q 1947.03 208.46 1946.51 208.49
  C 1943.55 208.64 1940.70 207.38 1938.11 207.37
  Q 1814.20 207.01 1762.19 207.40
  Q 1759.61 207.42 1756.66 209.59
  Q 1756.27 209.89 1756.18 210.37
  C 1755.54 214.05 1756.24 218.81 1756.24 221.28
  C 1756.23 231.73 1756.72 243.14 1756.72 252.65
  Q 1756.78 356.45 1756.74 460.25
  C 1756.74 483.60 1757.61 506.76 1756.81 530.14
  C 1756.78 531.04 1756.44 531.94 1756.25 532.82
  A 1.50 1.49 76.5 0 1 1755.74 533.66
  Q 1739.92 546.94 1723.19 559.02
  C 1705.86 571.52 1689.05 584.74 1672.34 598.06
  Q 1666.10 603.03 1658.03 606.66
  Q 1656.50 607.35 1656.21 605.69
  Q 1654.97 598.53 1655.11 590.51
  C 1655.44 572.33 1654.98 554.11 1655.59 535.96
  Q 1655.71 532.40 1655.65 527.25
  Q 1655.36 498.62 1655.47 428.25
  Q 1655.57 367.91 1655.65 307.56
  C 1655.65 306.86 1655.99 305.99 1655.96 305.38
  C 1655.02 278.06 1655.96 250.63 1656.29 223.25
  Q 1656.40 214.35 1655.43 209.14
  Q 1655.33 208.58 1654.89 208.23
  L 1652.74 206.46
  Q 1652.26 206.07 1651.65 206.06
  Q 1648.99 206.02 1646.33 206.15
  Q 1642.21 206.35 1640.66 206.35
  Q 1608.42 206.31 1576.19 206.61
  C 1572.07 206.65 1569.06 206.94 1564.86 206.71
  C 1562.45 206.57 1559.82 207.28 1557.71 207.28
  C 1550.34 207.27 1541.78 206.98 1535.04 203.65
  C 1524.65 198.52 1515.49 191.94 1505.44 186.26
  C 1500.94 183.71 1496.58 180.47 1492.32 178.21
  Q 1484.81 174.22 1477.16 170.52
  C 1473.11 168.56 1469.17 165.78 1464.96 163.64
  C 1463.76 163.03 1462.36 161.96 1460.69 161.64
  Q 1460.16 161.54 1459.81 161.15
  Q 1457.81 158.96 1455.29 157.33
  Q 1455.06 157.19 1455.01 156.93
  Q 1454.98 156.78 1454.95 156.63
  Q 1454.94 156.56 1454.87 156.55
  Z"
/>
<path fill="#cb232a" d="
  M 457.75 122.61
  Q 460.66 122.66 463.56 123.00
  C 467.73 123.50 470.93 121.83 475.11 123.97
  A 2.39 2.39 0.0 0 1 475.14 128.20
  Q 474.26 128.67 473.32 128.85
  Q 472.87 128.94 472.51 129.23
  C 460.50 139.26 450.30 146.73 436.72 159.32
  C 430.16 165.42 425.07 173.03 419.65 180.15
  Q 416.95 183.69 413.63 189.42
  C 409.18 197.11 404.03 205.76 394.58 205.56
  Q 379.16 205.22 363.75 205.15
  Q 280.13 204.72 196.50 204.70
  C 189.25 204.70 181.88 204.13 174.84 204.50
  Q 164.92 205.01 155.38 205.35
  A 2.10 2.09 3.0 0 0 153.39 207.14
  Q 152.75 211.63 152.70 216.57
  Q 152.31 250.34 152.82 284.11
  C 152.87 287.20 152.44 291.78 156.75 291.61
  Q 181.13 290.65 211.81 290.86
  C 268.22 291.23 320.82 289.83 372.08 291.71
  C 373.99 291.78 375.87 292.16 377.64 292.51
  A 2.41 2.41 0.0 0 1 379.57 295.16
  C 378.63 302.86 378.67 310.84 377.88 318.24
  Q 375.80 337.81 376.82 357.49
  C 377.14 363.69 376.55 367.84 371.21 370.86
  Q 370.77 371.11 370.26 371.06
  C 366.80 370.71 364.85 370.36 360.73 369.11
  C 357.65 368.18 354.40 369.01 352.00 368.94
  C 339.10 368.60 326.20 369.02 313.30 368.67
  C 269.99 367.48 226.64 368.94 183.34 368.02
  Q 168.99 367.71 154.89 370.66
  A 0.99 0.99 0.0 0 0 154.19 371.24
  C 153.64 372.52 152.84 374.29 152.84 375.71
  Q 152.63 416.35 152.79 457.00
  Q 152.81 462.72 153.34 466.57
  Q 153.42 467.16 154.02 467.20
  Q 155.72 467.33 157.31 467.34
  Q 256.55 468.07 355.78 467.53
  Q 360.70 467.50 374.70 466.95
  C 381.90 466.67 390.37 466.06 397.46 467.17
  C 401.56 467.81 404.03 468.07 405.95 472.29
  C 410.10 481.42 413.13 487.36 418.69 494.43
  Q 422.04 498.69 425.28 503.48
  Q 434.14 516.62 445.91 527.32
  C 449.92 530.96 453.38 535.04 458.32 537.48
  Q 464.56 540.58 468.72 546.31
  A 0.70 0.69 42.3 0 1 468.76 547.07
  Q 467.22 549.61 465.76 549.85
  Q 453.79 551.84 446.50 550.98
  C 440.06 550.22 432.37 550.09 425.22 549.00
  Q 420.33 548.25 416.23 548.09
  C 408.72 547.78 400.86 546.97 393.88 547.11
  C 333.84 548.31 276.45 546.99 210.00 547.21
  C 179.85 547.31 149.67 547.65 119.52 547.35
  C 110.57 547.26 100.35 547.25 91.59 549.12
  C 86.39 550.23 79.25 549.50 73.88 549.36
  C 66.61 549.16 60.23 549.72 53.38 550.51
  A 1.03 1.02 -89.3 0 1 52.25 549.35
  C 52.73 546.06 51.82 542.72 51.80 539.80
  Q 51.79 536.64 51.55 533.51
  Q 53.34 518.31 53.31 503.01
  C 53.20 461.29 52.87 419.53 53.21 377.81
  Q 53.31 366.11 53.32 357.81
  Q 53.36 293.50 53.44 229.19
  Q 53.48 195.63 53.14 178.69
  Q 52.66 154.79 53.01 139.36
  Q 53.01 139.05 53.26 138.86
  Q 53.36 138.78 53.46 138.71
  Q 53.50 138.68 53.50 138.63
  Q 53.42 133.56 52.76 128.52
  C 52.54 126.91 54.48 122.26 56.42 124.82
  Q 56.73 125.23 57.15 125.53
  Q 58.82 126.73 60.06 125.24
  A 2.15 2.14 -44.4 0 1 63.39 125.27
  C 64.41 126.55 92.26 125.91 95.94 125.85
  C 98.35 125.81 109.75 126.49 110.89 125.02
  Q 111.19 124.64 111.68 124.64
  Q 128.68 124.55 145.66 124.52
  C 149.31 124.52 153.45 125.70 157.19 125.72
  Q 206.31 125.90 255.44 125.90
  Q 284.26 125.89 313.10 125.72
  A 0.41 0.40 89.3 0 0 313.50 125.30
  Q 313.50 125.15 313.50 124.98
  Q 313.50 124.71 313.77 124.71
  Q 321.05 124.79 328.31 124.69
  C 335.13 124.58 343.64 124.91 351.32 124.56
  C 354.66 124.41 358.36 125.53 362.08 124.91
  C 364.76 124.47 367.18 125.05 369.77 124.71
  C 371.18 124.53 373.72 125.82 374.92 124.88
  Q 375.28 124.60 375.74 124.58
  C 381.29 124.38 386.65 124.57 392.32 124.40
  C 400.69 124.15 409.15 124.95 417.28 124.81
  Q 421.98 124.73 426.68 124.59
  C 430.42 124.47 437.41 123.46 442.93 124.07
  Q 447.01 124.52 450.01 124.33
  Q 453.80 124.10 457.60 124.17
  A 0.29 0.28 -17.4 0 0 457.84 123.72
  Q 457.73 123.58 457.47 123.41
  Q 457.39 123.36 457.47 123.30
  L 457.86 123.02
  A 0.18 0.18 0.0 0 0 457.92 122.82
  Q 457.88 122.69 457.75 122.61
  Z"
/>
<path fill="#000000" d="
  M 1419.11 152.20
  Q 1423.79 153.70 1427.50 156.46
  Q 1423.04 154.86 1419.11 152.20
  Z"
/>
<path fill="#000000" d="
  M 714.14 181.89
  Q 715.67 182.87 715.50 184.21
  Q 714.36 183.33 714.14 181.89
  Z"
/>
<path fill="#cb232a" d="
  M 639.25 321.61
  Q 640.02 321.92 640.75 321.74
  Q 641.01 321.67 640.74 321.63
  Q 640.52 321.60 640.35 321.44
  Q 640.01 321.09 640.49 321.05
  Q 641.97 320.92 643.36 320.81
  Q 643.86 320.77 644.32 320.99
  Q 646.31 321.98 648.02 320.42
  Q 648.38 320.09 648.86 320.18
  Q 653.34 321.04 657.91 321.02
  C 661.08 321.01 663.29 322.73 666.23 322.79
  Q 680.26 323.10 694.28 323.17
  Q 694.64 323.17 694.92 322.95
  Q 695.03 322.85 695.13 322.74
  Q 695.21 322.66 695.32 322.67
  Q 700.70 323.00 705.63 321.20
  C 711.44 319.06 722.20 320.16 728.66 320.00
  C 731.19 319.94 733.89 318.87 736.94 320.30
  Q 737.48 320.55 737.55 321.13
  Q 737.68 322.15 738.62 322.49
  Q 739.09 322.66 739.33 323.11
  C 741.74 327.67 735.63 331.11 732.73 333.37
  C 721.45 342.16 712.39 350.00 699.63 360.67
  Q 686.81 371.38 671.82 387.07
  C 667.44 391.65 657.41 398.71 650.14 398.94
  C 641.96 399.19 632.79 398.74 625.63 398.86
  Q 609.28 399.16 592.94 399.70
  Q 582.45 400.06 572.55 399.22
  A 1.73 1.73 0.0 0 1 571.04 397.00
  C 572.81 391.01 578.06 385.75 582.00 381.00
  C 589.30 372.18 594.71 362.13 601.71 353.07
  Q 611.70 340.14 617.49 330.21
  C 619.49 326.76 619.76 325.43 623.66 323.67
  Q 626.28 322.49 628.67 320.85
  Q 629.02 320.61 629.46 320.64
  L 639.50 321.35
  A 0.07 0.07 0.0 0 1 639.52 321.49
  Q 639.38 321.55 639.25 321.58
  A 0.02 0.01 48.6 0 0 639.25 321.61
  Z"
/>
<path fill="#000000" d="
  M 642.46 449.62
  Q 640.68 447.56 641.71 446.12
  A 0.82 0.81 47.4 0 0 641.74 445.21
  Q 641.04 444.14 638.53 444.31
  Q 640.66 443.39 643.16 444.64
  A 0.65 0.64 25.4 0 1 643.47 445.49
  Q 642.48 447.68 642.46 449.62
  Z"
/>
</svg>
