<?xml version="1.0" encoding="UTF-8" standalone="no"?>
<!DOCTYPE svg PUBLIC "-//W3C//DTD SVG 1.1//EN" "http://www.w3.org/Graphics/SVG/1.1/DTD/svg11.dtd">
<svg xmlns="http://www.w3.org/2000/svg" version="1.1" viewBox="0.00 0.00 512.00 512.00">
<path fill="#000000" d="
  M 316.50 41.55
  C 347.53 63.87 374.52 90.18 399.45 119.09
  A 0.25 0.25 0.0 0 1 399.26 119.50
  L 112.74 119.50
  A 0.25 0.25 0.0 0 1 112.55 119.09
  Q 139.75 87.37 171.37 60.13
  C 188.88 45.04 208.18 31.44 229.64 22.57
  Q 253.98 12.53 277.95 20.99
  Q 297.52 27.89 316.50 41.55
  Z
  M 255.8391 50.6780
  A 7.86 7.86 0.0 0 0 247.9653 42.8317
  L 238.4654 42.8483
  A 7.86 7.86 0.0 0 0 230.6191 50.7220
  L 230.6209 51.7820
  A 7.86 7.86 0.0 0 0 238.4947 59.6283
  L 247.9946 59.6117
  A 7.86 7.86 0.0 0 0 255.8409 51.7380
  L 255.8391 50.6780
  Z
  M 315.5718 67.7540
  A 7.86 7.86 0.0 0 0 307.7393 59.8666
  L 298.2394 59.8335
  A 7.86 7.86 0.0 0 0 290.3520 67.6660
  L 290.3482 68.7460
  A 7.86 7.86 0.0 0 0 298.1807 76.6334
  L 307.6806 76.6665
  A 7.86 7.86 0.0 0 0 315.5680 68.8340
  L 315.5718 67.7540
  Z
  M 213.1218 84.7740
  A 7.85 7.85 0.0 0 0 205.2993 76.8967
  L 195.7794 76.8634
  A 7.85 7.85 0.0 0 0 187.9020 84.6860
  L 187.8982 85.7860
  A 7.85 7.85 0.0 0 0 195.7207 93.6633
  L 205.2406 93.6966
  A 7.85 7.85 0.0 0 0 213.1180 85.8740
  L 213.1218 84.7740
  Z"
/>
<rect fill="#000000" x="59.75" y="136.51" width="392.50" height="51.24" rx="8.74"/>
<path fill="#000000" d="
  M 407.34 489.02
  C 395.89 482.46 383.19 480.56 370.24 483.23
  Q 265.25 504.92 159.68 486.61
  C 144.18 483.93 131.39 479.43 115.85 484.13
  C 110.87 485.64 105.60 488.57 100.48 491.17
  C 73.91 504.70 44.30 479.42 52.72 450.96
  Q 52.89 450.39 56.84 441.35
  C 62.44 428.52 62.00 416.98 58.96 403.46
  C 50.19 364.40 48.99 324.13 54.74 284.25
  C 58.77 256.29 66.84 228.31 81.22 205.20
  Q 81.50 204.75 82.02 204.75
  L 429.53 204.75
  A 1.65 1.64 -15.7 0 1 430.93 205.53
  C 443.40 225.60 450.86 248.71 455.12 271.83
  Q 467.23 337.42 453.39 402.28
  C 450.16 417.40 449.26 427.66 454.97 440.95
  Q 459.00 450.31 459.01 450.35
  C 463.65 465.20 458.40 480.06 445.80 488.88
  C 433.80 497.29 420.23 496.41 407.34 489.02
  Z"
/>
</svg>
