<?xml version="1.0" encoding="UTF-8" standalone="no"?>
<!DOCTYPE svg PUBLIC "-//W3C//DTD SVG 1.1//EN" "http://www.w3.org/Graphics/SVG/1.1/DTD/svg11.dtd">
<svg xmlns="http://www.w3.org/2000/svg" version="1.1" viewBox="0.00 0.00 512.00 512.00">
<path fill="#000000" d="
  M 148.50 43.50
  C 182.31 52.79 203.12 83.64 203.04 118.01
  C 203.04 119.12 202.83 119.95 201.91 120.70
  Q 174.42 143.25 168.08 178.44
  A 1.13 1.10 -11.2 0 1 167.58 179.17
  C 112.27 213.72 43.13 165.90 54.09 102.91
  C 61.76 58.82 105.52 31.69 148.50 43.50
  Z"
/>
<path fill="#000000" d="
  M 309.05 114.09
  C 310.84 60.73 364.86 25.35 414.26 46.99
  C 445.82 60.82 463.58 94.55 457.92 128.43
  C 449.85 176.79 397.20 204.28 352.71 183.67
  Q 352.28 183.47 352.22 183.00
  Q 346.06 139.16 309.45 114.88
  Q 309.03 114.59 309.05 114.09
  Z"
/>
<circle fill="#000000" cx="259.77" cy="193.18" r="74.99"/>
<path fill="#000000" d="
  M 0.00 370.85
  L 0.00 289.70
  C 2.29 242.59 35.45 203.75 82.30 196.97
  Q 89.01 196.00 102.25 195.92
  Q 132.62 195.76 163.00 196.10
  Q 165.20 196.12 166.35 196.23
  Q 166.92 196.29 166.96 196.87
  Q 169.01 233.95 195.08 259.89
  Q 195.55 260.35 194.93 260.54
  C 154.40 273.40 124.16 306.15 116.02 347.88
  C 113.31 361.78 113.43 377.62 113.87 392.48
  A 0.60 0.60 0.0 0 1 113.23 393.09
  Q 55.23 389.04 0.00 370.85
  Z"
/>
<path fill="#000000" d="
  M 512.00 290.32
  L 512.00 369.87
  C 479.32 385.35 442.47 392.18 406.30 393.53
  Q 405.73 393.55 405.73 392.98
  Q 405.78 382.08 405.78 371.25
  C 405.77 319.95 373.70 276.18 324.89 260.63
  A 0.59 0.58 31.2 0 1 324.65 259.66
  Q 350.71 233.63 352.57 196.48
  A 0.75 0.75 0.0 0 1 353.32 195.77
  Q 384.16 195.72 414.80 196.10
  Q 426.80 196.25 434.09 197.68
  C 478.97 206.50 510.29 244.57 512.00 290.32
  Z"
/>
<path fill="#000000" d="
  M 309.14 275.09
  C 350.24 282.67 381.63 316.31 386.88 357.62
  Q 387.69 363.96 387.72 377.58
  Q 387.80 412.10 387.73 446.70
  Q 387.73 447.21 387.28 447.43
  C 364.46 459.04 338.37 465.28 312.48 468.41
  C 251.33 475.81 190.76 467.69 132.44 448.70
  Q 131.76 448.48 131.76 447.76
  Q 131.72 409.58 131.77 371.00
  C 131.85 317.31 172.17 275.85 225.74 273.46
  Q 241.62 272.76 289.24 273.57
  Q 302.07 273.79 309.14 275.09
  Z"
/>
</svg>
