<?xml version="1.0" encoding="UTF-8" standalone="no"?>
<!DOCTYPE svg PUBLIC "-//W3C//DTD SVG 1.1//EN" "http://www.w3.org/Graphics/SVG/1.1/DTD/svg11.dtd">
<svg xmlns="http://www.w3.org/2000/svg" version="1.1" viewBox="0.00 0.00 512.00 512.00">
<path fill="#000000" d="
  M 157.07 0.00
  L 355.05 0.00
  C 366.99 2.42 368.50 10.16 368.50 21.53
  Q 368.50 106.92 368.50 192.23
  A 0.52 0.52 0.0 0 1 367.98 192.75
  L 144.02 192.75
  A 0.52 0.52 0.0 0 1 143.50 192.23
  Q 143.50 106.47 143.49 20.47
  C 143.49 9.58 145.55 2.18 157.07 0.00
  Z
  M 292.22 55.12
  C 274.87 72.14 257.52 89.11 240.52 106.74
  A 0.85 0.84 44.8 0 1 239.31 106.74
  Q 229.46 96.70 219.97 87.44
  Q 215.78 83.35 212.67 82.29
  C 200.56 78.13 188.93 90.42 193.96 102.17
  Q 195.19 105.02 200.36 110.22
  Q 213.08 122.98 225.83 135.70
  C 235.68 145.53 243.15 146.47 253.36 136.26
  Q 283.09 106.53 312.83 76.79
  Q 316.57 73.05 317.73 70.45
  C 323.27 58.07 311.32 45.56 298.68 50.54
  Q 295.68 51.73 292.22 55.12
  Z"
/>
<path fill="#000000" d="
  M 114.61 222.69
  Q 253.90 222.80 393.20 222.75
  Q 401.10 222.75 404.62 221.29
  C 418.86 215.40 414.88 194.27 399.05 192.86
  Q 398.50 192.81 398.50 192.27
  L 398.50 129.02
  A 0.52 0.52 0.0 0 1 399.02 128.50
  Q 412.70 128.50 426.55 128.50
  C 436.53 128.50 444.71 129.76 447.28 140.00
  Q 463.04 202.90 478.74 265.82
  C 481.79 278.03 475.93 287.00 462.96 287.00
  Q 256.52 287.00 50.09 287.00
  C 36.08 287.00 29.96 278.90 33.36 265.29
  Q 48.90 203.13 64.40 140.98
  C 67.09 130.22 74.19 128.56 84.77 128.50
  Q 98.80 128.41 112.83 128.54
  Q 113.50 128.55 113.50 129.22
  L 113.50 192.24
  A 0.45 0.44 84.5 0 1 113.14 192.68
  C 111.28 193.05 109.01 192.98 107.37 193.69
  Q 97.93 197.75 97.69 207.14
  C 97.42 217.81 104.80 222.68 114.61 222.69
  Z"
/>
<path fill="#000000" d="
  M 466.18 512.00
  L 45.69 512.00
  C 32.89 509.48 32.01 500.95 32.01 488.91
  Q 31.99 402.20 32.00 315.45
  A 0.71 0.70 8.3 0 1 32.91 314.78
  C 37.50 316.12 41.84 317.00 46.85 317.00
  Q 254.87 317.00 462.89 317.00
  C 469.05 317.00 473.74 316.45 479.15 314.74
  A 0.47 0.46 -9.1 0 1 479.76 315.18
  Q 479.74 404.56 479.76 494.17
  C 479.76 503.74 476.23 510.20 466.18 512.00
  Z"
/>
</svg>
