<?xml version="1.0" encoding="UTF-8" standalone="no"?>
<!DOCTYPE svg PUBLIC "-//W3C//DTD SVG 1.1//EN" "http://www.w3.org/Graphics/SVG/1.1/DTD/svg11.dtd">
<svg xmlns="http://www.w3.org/2000/svg" version="1.1" viewBox="0.00 0.00 512.00 512.00">
<path fill="#000000" d="
  M 383.74 66.64
  L 449.81 0.56
  A 0.47 0.47 0.0 0 1 450.58 0.73
  L 466.90 44.77
  A 0.47 0.47 0.0 0 0 467.17 45.05
  L 511.28 61.40
  A 0.47 0.47 0.0 0 1 511.45 62.17
  L 445.33 128.29
  A 0.47 0.47 0.0 0 1 445.06 128.42
  L 374.44 138.11
  A 0.47 0.47 0.0 0 1 373.91 137.58
  L 383.61 66.91
  A 0.47 0.47 0.0 0 1 383.74 66.64
  Z"
/>
<path fill="#000000" d="
  M 240.69 512.00
  L 233.69 512.00
  C 105.41 509.05 3.29 408.07 0.00 279.44
  L 0.00 270.19
  C 4.55 90.89 195.13 -18.94 352.76 67.20
  A 0.82 0.81 18.5 0 1 353.17 68.01
  L 345.26 125.77
  A 0.52 0.51 -68.1 0 1 344.45 126.12
  C 301.14 95.07 247.07 84.07 194.92 96.45
  C 127.02 112.57 72.27 167.85 58.22 236.47
  C 33.33 357.94 130.97 468.41 255.31 456.94
  C 340.77 449.05 411.18 379.30 419.47 293.82
  Q 426.19 224.56 385.78 167.33
  A 0.36 0.35 -21.9 0 1 386.02 166.77
  L 444.06 158.86
  A 0.69 0.68 71.3 0 1 444.76 159.21
  C 531.31 317.13 420.21 508.64 240.69 512.00
  Z"
/>
<path fill="#000000" d="
  M 85.85 251.81
  C 103.32 134.85 242.26 81.26 334.28 156.12
  A 0.31 0.30 -48.0 0 1 334.30 156.57
  L 296.56 194.31
  A 0.86 0.84 -49.8 0 1 295.47 194.41
  C 231.91 149.81 144.66 189.66 138.57 267.25
  C 133.43 332.62 193.40 385.08 257.49 371.68
  C 327.80 356.97 359.31 275.22 317.48 216.46
  Q 317.14 215.98 317.56 215.57
  L 355.31 177.82
  A 0.49 0.48 48.0 0 1 356.03 177.86
  C 407.33 241.56 400.64 332.17 340.67 387.66
  C 289.74 434.78 213.18 440.63 154.95 403.67
  C 103.69 371.14 76.98 311.16 85.85 251.81
  Z"
/>
<path fill="#000000" d="
  M 248.45 284.69
  L 295.20 237.95
  A 0.41 0.40 51.8 0 1 295.83 238.03
  C 307.62 257.21 309.64 279.87 301.31 300.67
  C 285.54 340.04 237.00 356.03 200.79 333.16
  C 163.97 309.90 157.24 259.74 186.80 227.56
  C 209.33 203.03 245.64 199.07 273.99 216.12
  A 0.44 0.44 0.0 0 1 274.07 216.81
  L 227.18 263.68
  A 0.62 0.62 0.0 0 0 227.18 264.56
  L 247.32 284.69
  A 0.80 0.79 -44.7 0 0 248.45 284.69
  Z"
/>
</svg>
