<?xml version="1.0" encoding="UTF-8" standalone="no"?>
<!DOCTYPE svg PUBLIC "-//W3C//DTD SVG 1.1//EN" "http://www.w3.org/Graphics/SVG/1.1/DTD/svg11.dtd">
<svg xmlns="http://www.w3.org/2000/svg" version="1.1" viewBox="0.00 0.00 512.00 512.00">
<path fill="#000000" d="
  M 182.27 53.26
  A 12.74 12.74 0.0 0 1 169.55 40.50
  L 169.57 29.31
  A 27.47 26.64 -89.9 0 1 196.25 1.88
  L 239.35 1.96
  A 27.47 26.64 -89.9 0 1 265.95 29.47
  L 265.93 40.66
  A 12.74 12.74 0.0 0 1 253.17 53.38
  L 182.27 53.26
  Z"
/>
<path fill="#000000" d="
  M 275.62 98.31
  Q 276.52 111.42 279.30 145.25
  C 280.54 160.43 281.61 173.62 284.88 187.53
  C 293.29 223.39 309.93 254.92 331.50 284.75
  Q 341.97 299.23 351.34 314.52
  A 0.65 0.65 0.0 0 0 352.49 314.46
  Q 353.72 311.89 355.31 309.52
  Q 383.04 268.17 410.92 226.93
  C 415.65 219.94 419.04 212.54 419.49 204.16
  C 420.68 181.99 402.06 163.65 380.24 164.04
  C 369.84 164.22 363.13 168.60 352.53 175.06
  Q 343.30 180.68 334.13 186.40
  C 326.23 191.33 318.36 195.40 312.02 186.53
  C 306.29 178.53 310.22 172.04 317.48 167.50
  Q 332.57 158.04 347.82 148.83
  C 404.21 114.81 468.09 176.72 435.81 234.23
  Q 435.15 235.40 424.77 250.88
  Q 398.16 290.55 371.37 330.10
  Q 367.05 336.48 361.83 342.17
  Q 361.46 342.58 361.65 343.10
  C 362.79 346.22 364.04 349.05 364.65 352.19
  C 376.53 412.86 353.68 471.39 303.33 507.36
  Q 299.67 509.98 294.69 509.98
  Q 217.72 510.03 140.75 509.98
  C 136.86 509.98 134.84 509.37 131.57 507.02
  C 101.36 485.37 80.05 454.55 71.55 418.21
  C 70.41 413.35 69.11 408.26 68.48 403.53
  Q 64.67 374.68 72.77 344.75
  Q 79.83 318.65 93.35 299.84
  Q 101.35 288.72 109.23 277.51
  C 131.55 245.77 147.63 209.86 153.67 171.41
  Q 154.79 164.26 155.79 151.53
  Q 157.86 125.00 160.02 98.41
  A 1.02 1.02 0.0 0 0 158.92 97.32
  C 154.53 97.72 145.17 97.67 141.90 94.12
  C 135.72 87.41 137.49 76.98 146.31 73.33
  Q 148.61 72.38 155.25 72.45
  Q 217.23 73.08 279.21 72.54
  Q 286.66 72.48 289.94 73.89
  C 298.83 77.72 299.75 91.78 290.60 96.00
  C 286.92 97.69 280.96 97.18 276.29 97.53
  Q 275.57 97.59 275.62 98.31
  Z
  M 306.72 354.50
  C 316.08 386.01 310.30 418.91 289.04 444.17
  C 285.76 448.07 281.72 451.85 277.85 455.55
  C 267.67 465.30 280.30 480.77 291.23 471.67
  C 322.08 445.99 336.30 406.90 330.95 367.25
  Q 329.34 355.33 325.46 345.24
  C 321.55 335.06 302.36 339.81 306.72 354.50
  Z"
/>
</svg>
