<?xml version="1.0" encoding="UTF-8" standalone="no"?>
<!DOCTYPE svg PUBLIC "-//W3C//DTD SVG 1.1//EN" "http://www.w3.org/Graphics/SVG/1.1/DTD/svg11.dtd">
<svg xmlns="http://www.w3.org/2000/svg" version="1.1" viewBox="0.00 0.00 512.00 512.00">
<path fill="#000000" d="
  M 361.66 351.30
  C 359.62 354.23 359.98 357.27 361.50 360.20
  Q 377.04 390.21 366.51 422.00
  C 363.15 432.14 356.13 440.62 347.49 448.49
  C 319.09 474.34 282.85 492.58 247.97 507.90
  Q 246.25 508.65 246.42 506.79
  C 249.03 476.90 247.56 448.59 237.15 420.24
  Q 234.56 413.18 224.65 389.33
  C 212.09 359.09 243.72 337.27 266.44 326.19
  Q 275.47 321.79 270.57 312.14
  C 253.25 278.08 262.21 237.83 292.40 214.62
  C 298.12 210.22 305.45 206.70 312.22 203.25
  C 316.35 201.14 316.20 193.87 314.49 190.79
  C 285.70 138.83 328.93 73.70 388.51 78.78
  Q 395.13 79.35 398.46 73.50
  Q 413.96 46.32 429.21 18.98
  Q 429.23 18.95 431.96 13.32
  C 441.56 -6.43 467.29 4.46 464.14 25.14
  C 463.46 29.57 454.32 34.24 448.73 37.73
  C 445.62 39.67 442.75 43.10 440.91 46.73
  C 435.25 57.88 430.29 69.63 424.33 80.57
  C 419.82 88.85 427.73 93.28 433.06 97.69
  C 444.46 107.10 452.37 121.03 455.96 135.56
  C 463.74 167.04 451.53 201.14 424.11 219.27
  C 414.87 225.38 399.67 226.20 406.37 240.85
  Q 410.14 249.06 411.42 253.55
  C 421.03 287.26 408.09 322.79 378.19 341.19
  C 375.40 342.90 365.13 346.30 361.66 351.30
  Z
  M 410.41 126.35
  C 423.30 144.21 422.82 170.26 408.95 186.69
  C 404.31 192.17 393.37 199.11 402.90 207.26
  Q 408.73 212.24 415.22 206.26
  C 440.26 183.19 444.99 146.10 426.30 117.10
  C 423.91 113.39 419.19 108.71 414.81 110.01
  C 405.47 112.78 405.64 119.74 410.41 126.35
  Z"
/>
<path fill="#000000" d="
  M 147.69 277.94
  C 150.10 275.23 149.56 268.30 149.58 264.75
  C 149.84 221.61 183.24 189.25 226.09 187.81
  C 235.58 187.49 238.99 185.38 238.71 175.73
  C 237.68 140.83 258.51 110.55 291.34 99.50
  Q 299.03 96.92 307.25 95.22
  A 0.61 0.61 0.0 0 1 307.86 96.18
  C 286.85 123.77 281.55 158.14 294.56 190.70
  Q 294.74 191.16 294.33 191.43
  C 278.43 201.81 266.35 211.47 256.44 228.08
  A 1.19 1.18 31.5 0 1 254.79 228.47
  C 227.97 211.32 189.91 227.32 184.97 259.66
  C 180.66 287.93 205.30 315.76 234.04 313.30
  C 238.92 312.89 244.64 310.62 250.01 309.66
  Q 250.71 309.54 250.88 310.23
  L 251.30 311.94
  Q 251.43 312.50 250.97 312.84
  C 250.37 313.28 249.62 313.95 248.96 314.29
  C 226.10 325.92 200.82 353.40 203.69 380.83
  C 204.02 383.98 206.23 388.34 204.59 391.96
  C 189.07 426.32 142.19 434.37 109.41 436.97
  Q 81.35 439.20 53.19 439.23
  C 51.95 439.23 49.65 439.97 47.90 439.48
  Q 47.31 439.31 47.61 438.77
  Q 51.28 432.20 54.74 425.60
  Q 71.99 392.64 75.16 355.81
  C 75.98 346.26 75.68 334.11 76.03 323.26
  C 76.77 300.08 95.41 288.46 115.75 283.75
  Q 126.81 281.19 132.32 281.33
  C 136.74 281.44 144.56 281.44 147.69 277.94
  Z
  M 188.40 358.44
  A 45.94 45.94 0.0 0 0 142.46 312.50
  A 45.94 45.94 0.0 0 0 96.52 358.44
  A 45.94 45.94 0.0 0 0 142.46 404.38
  A 45.94 45.94 0.0 0 0 188.40 358.44
  Z"
/>
<path fill="#000000" d="
  M 244.48 262.63
  C 243.45 270.70 242.64 280.08 244.55 287.68
  C 245.00 289.50 245.04 290.51 243.26 291.51
  C 230.91 298.45 216.43 293.99 208.75 283.75
  C 200.06 272.17 201.22 256.77 211.97 246.97
  Q 225.80 234.38 245.02 243.27
  Q 246.33 243.88 247.15 244.46
  Q 247.60 244.79 247.54 245.34
  C 246.88 251.22 245.12 257.64 244.48 262.63
  Z"
/>
<circle fill="#000000" cx="142.47" cy="358.64" r="27.65"/>
</svg>
