<?xml version="1.0" encoding="UTF-8" standalone="no"?>
<!DOCTYPE svg PUBLIC "-//W3C//DTD SVG 1.1//EN" "http://www.w3.org/Graphics/SVG/1.1/DTD/svg11.dtd">
<svg xmlns="http://www.w3.org/2000/svg" version="1.1" viewBox="0.00 0.00 512.00 512.00">
<path fill="#000000" d="
  M 254.06 0.00
  L 258.56 0.00
  C 270.89 2.95 285.02 28.31 290.41 39.15
  A 0.73 0.73 0.0 0 0 291.46 39.43
  Q 306.32 29.66 323.04 23.33
  C 331.71 20.04 339.91 19.03 345.42 27.13
  Q 347.77 30.58 349.00 38.04
  Q 351.90 55.69 351.09 73.66
  Q 351.06 74.32 351.72 74.29
  C 363.45 73.78 375.48 74.28 388.03 76.46
  C 404.61 79.35 407.32 88.91 401.60 103.52
  Q 395.31 119.60 385.71 134.02
  Q 385.39 134.50 385.91 134.76
  Q 407.68 145.43 422.53 160.18
  C 426.31 163.93 425.85 173.08 423.09 177.23
  Q 421.60 179.46 415.57 184.39
  Q 403.78 194.00 387.74 202.52
  Q 385.34 203.80 387.26 206.75
  Q 396.22 220.47 402.77 238.18
  C 407.96 252.23 401.19 259.47 388.47 261.81
  Q 371.88 264.86 355.76 264.01
  Q 353.37 263.88 351.65 264.23
  Q 351.11 264.34 351.06 264.89
  C 350.81 267.91 351.23 271.70 351.23 273.78
  Q 351.25 287.46 348.90 300.90
  C 347.33 309.86 344.29 316.56 334.86 317.45
  Q 331.01 317.81 324.84 315.64
  C 312.00 311.14 302.84 305.66 292.22 299.61
  A 1.80 1.79 27.9 0 0 289.72 300.37
  Q 281.73 316.48 270.14 330.15
  C 266.46 334.49 263.24 337.81 257.44 338.27
  C 252.06 338.69 248.10 336.60 244.36 332.44
  Q 230.98 317.58 222.16 299.54
  A 0.78 0.77 -27.8 0 0 221.08 299.21
  C 209.46 305.81 198.33 312.05 185.57 316.27
  Q 180.79 317.86 177.29 317.41
  C 167.52 316.15 164.85 309.22 163.28 299.98
  Q 160.40 282.99 161.32 265.68
  A 1.74 1.73 -0.3 0 0 159.48 263.86
  Q 143.87 264.86 128.33 262.53
  C 117.87 260.97 108.79 258.74 107.95 247.53
  Q 107.63 243.26 110.05 236.75
  Q 116.22 220.21 125.94 205.42
  Q 126.25 204.94 125.99 204.43
  Q 125.22 202.91 123.46 202.02
  Q 107.05 193.74 92.93 180.98
  C 83.89 172.82 85.21 163.93 94.07 156.34
  Q 108.33 144.12 125.26 135.25
  Q 126.94 134.37 125.89 132.80
  Q 115.82 117.83 109.40 99.83
  C 104.38 85.79 111.85 78.39 124.52 76.41
  Q 141.91 73.70 160.52 74.35
  A 0.89 0.88 89.1 0 0 161.43 73.41
  Q 160.30 54.77 163.68 36.26
  Q 164.82 29.99 167.14 26.80
  C 173.09 18.60 181.23 20.21 190.09 23.61
  Q 206.34 29.85 220.68 39.28
  A 0.91 0.91 0.0 0 0 221.99 38.93
  Q 231.88 19.17 246.80 3.06
  Q 248.94 0.76 254.06 0.00
  Z
  M 344.38 169.17
  A 88.20 88.20 0.0 0 0 256.18 80.97
  A 88.20 88.20 0.0 0 0 167.98 169.17
  A 88.20 88.20 0.0 0 0 256.18 257.37
  A 88.20 88.20 0.0 0 0 344.38 169.17
  Z"
/>
<circle fill="#000000" cx="256.20" cy="169.19" r="57.56"/>
<path fill="#000000" d="
  M 256.69 512.00
  L 255.19 512.00
  C 244.61 510.26 240.78 503.20 240.76 493.24
  Q 240.73 471.26 240.76 449.18
  A 0.62 0.62 0.0 0 0 240.19 448.56
  Q 234.98 448.10 229.75 448.26
  Q 223.06 448.47 209.00 445.23
  C 171.54 436.60 148.81 404.41 141.23 368.27
  C 138.26 354.11 144.05 347.11 158.02 345.39
  C 197.56 340.53 234.58 351.94 255.69 387.49
  Q 256.08 388.14 256.49 387.50
  C 269.05 368.24 283.27 355.12 306.03 348.82
  Q 332.08 341.61 357.99 346.01
  C 371.89 348.38 373.44 358.69 370.62 370.70
  Q 364.85 395.24 350.83 414.08
  C 331.74 439.74 303.95 448.95 272.80 448.42
  A 1.27 1.27 0.0 0 0 271.51 449.69
  Q 271.48 470.98 271.51 492.75
  C 271.52 503.15 267.94 510.51 256.69 512.00
  Z"
/>
</svg>
